<svg role="img" viewBox="0 0 24 24" xmlns="http://www.w3.org/2000/svg"><title>zkoss</title><path d="M23.8088 18.8127v-.3824c0-1.9602-.8606-3.4423-2.486-4.4462-.1913-.0957-.3348-.1435-.3348-.1435.0957 0 .2869-.0956.3825-.1434 1.1474-.765 1.9124-1.7211 2.247-2.9163 0-.0956.0478-.1435.0478-.239.1435-.6216 0-1.1475-.3346-1.2431h-1.1952c.0478.239.0478.478.0478.765-.1435.717-.526 1.3864-1.0996 1.9123-.765.7171-1.7212 1.0996-2.8208 1.0996-1.4342 0-2.6294.4303-3.6812 1.3386-.2869.239-.2869.4303-.2869.4303V5.235c0-.6693-.2868-1.1952-.6693-1.243h-1.1952c.1434.239.239.6694.239 1.0996V18.765c0 .4781-.0956.8606-.239 1.1475h1.1474c.3347 0 .6215-.5738.6693-1.2909v-.239c0-1.0518.3825-1.9602 1.1474-2.6773.765-.765 1.7211-1.0996 2.8207-1.0996s2.0558.3824 2.8208 1.0996q1.1474 1.0757 1.1474 2.725v.3347c.0478.6216.2868 1.1475.6215 1.1953H24c-.1434-.2869-.1912-.7172-.1912-1.1474m-13.9124-.6216h-4.255c-.9083 0-1.7689-.2868-2.486-.8605-.6693-.526-1.0996-1.1474-1.3387-1.9124v-.0478c0-.0956.0957-.1912.1913-.239h8.8924c.0956 0 .1912-.0956.1912-.1913v-.0478c0-.1912.0478-.3346.0478-.5259 0-1.482-.5259-2.725-1.6255-3.7769S7.1235 9.0598 5.5936 9.0598h-4.494c-.4303 0-.8127-.0957-1.0996-.239v1.0995c0 .3347.5737.6215 1.3386.6693h4.2072c.9562 0 1.769.2869 2.486.8606.6694.5259 1.0997 1.1474 1.291 1.9602v.0478c0 .1434-.0957.239-.2391.239H.3347c-.0957 0-.1913.0956-.239.1912v.526c0 1.482.5258 2.725 1.6254 3.7768s2.3905 1.5777 3.9203 1.5777h4.3028c.4781 0 .9562.0956 1.243.239v-1.0995c0-.4303-.5737-.6694-1.2908-.7172"/></svg>